<svg width="126" height="126" viewBox="0 0 126 126" fill="none" xmlns="http://www.w3.org/2000/svg">
<path fill-rule="evenodd" clip-rule="evenodd" d="M119.571 74.2638C120.292 70.6209 120.67 66.8546 120.67 63C120.67 31.1497 94.8503 5.33 63 5.33C40.8813 5.33 21.6709 17.7822 11.9967 36.0588C10.8049 34.7096 9.31426 33.6305 7.62841 32.9251C18.3042 13.3113 39.0976 0 63 0C97.7939 0 126 28.2061 126 63C126 67.3285 125.563 71.555 124.732 75.638C123.092 74.9969 121.364 74.5312 119.571 74.2638ZM95.5693 110.599C86.3017 116.953 75.0849 120.67 63 120.67C31.1497 120.67 5.33 94.8503 5.33 63C5.33 60.5182 5.48677 58.073 5.79095 55.6737C4.89538 55.8871 3.96088 56 3 56C2.11288 56 1.24824 55.9037 0.415962 55.7211C0.141206 58.1093 0 60.5382 0 63C0 97.7939 28.2061 126 63 126C76.3255 126 88.6848 121.863 98.8633 114.803C97.6166 113.531 96.5102 112.122 95.5693 110.599Z" fill="#5E1B89"/>
<path fill-rule="evenodd" clip-rule="evenodd" d="M63 120.67C75.0849 120.67 86.3017 116.953 95.5693 110.599C96.5102 112.122 97.6166 113.531 98.8633 114.803C88.6848 121.863 76.3255 126 63 126C28.2061 126 0 97.7939 0 63C0 60.5382 0.141206 58.1093 0.415962 55.7211C1.24824 55.9037 2.11288 56 3 56C3.96088 56 4.89538 55.8871 5.79095 55.6737C5.48677 58.073 5.33 60.5182 5.33 63C5.33 94.8503 31.1497 120.67 63 120.67Z" fill="#F4512C"/>
<g clip-path="url(#clip0_9_80)">
<path d="M94.0908 56.4546H69.5453V31.9091C69.5453 29.1993 67.346 27 64.6362 27H61.3637C58.6538 27 56.4546 29.1993 56.4546 31.9091V56.4546H31.9091C29.1993 56.4546 27 58.6538 27 61.3637V64.6362C27 67.346 29.1993 69.5453 31.9091 69.5453H56.4546V94.0908C56.4546 96.8006 58.6538 98.9998 61.3637 98.9998H64.6362C67.346 98.9998 69.5453 96.8006 69.5453 94.0908V69.5453H94.0908C96.8006 69.5453 98.9998 67.346 98.9998 64.6362V61.3637C98.9998 58.6538 96.8006 56.4546 94.0908 56.4546Z" fill="#5E1B89"/>
</g>
<defs>
<clipPath id="clip0_9_80">
<rect width="72" height="72" fill="white" transform="translate(27 27)"/>
</clipPath>
</defs>
</svg>
