<svg xmlns="http://www.w3.org/2000/svg" version="1.1" xmlns:xlink="http://www.w3.org/1999/xlink" width="512" height="512" x="0" y="0" viewBox="0 0 48 48" style="enable-background:new 0 0 512 512" xml:space="preserve" class=""><g><path d="M13.84 8.34h24c.83 0 1.5-.67 1.5-1.5s-.67-1.5-1.5-1.5h-24c-.83 0-1.5.67-1.5 1.5s.67 1.5 1.5 1.5zM6.84 8.84h2c.55 0 1-.45 1-1v-2c0-.55-.45-1-1-1h-2c-.55 0-1 .45-1 1v2c0 .55.44 1 1 1zM5.84 15.84c0 .55.45 1 1 1h2c.55 0 1-.45 1-1v-2c0-.55-.45-1-1-1h-2c-.55 0-1 .45-1 1zM5.84 23.84c0 .55.45 1 1 1h2c.55 0 1-.45 1-1v-2c0-.55-.45-1-1-1h-2c-.55 0-1 .45-1 1zM5.84 31.84c0 .55.45 1 1 1h2c.55 0 1-.45 1-1v-2c0-.55-.45-1-1-1h-2c-.55 0-1 .45-1 1zM13.84 16.34h24c.83 0 1.5-.67 1.5-1.5s-.67-1.5-1.5-1.5h-24c-.83 0-1.5.67-1.5 1.5s.67 1.5 1.5 1.5zM13.84 24.34h24c.83 0 1.5-.67 1.5-1.5s-.67-1.5-1.5-1.5h-24c-.83 0-1.5.67-1.5 1.5s.67 1.5 1.5 1.5zM13.84 32.34h24c.83 0 1.5-.67 1.5-1.5s-.67-1.5-1.5-1.5h-24c-.83 0-1.5.67-1.5 1.5s.67 1.5 1.5 1.5zM13.84 40.34h14c.83 0 1.5-.67 1.5-1.5s-.67-1.5-1.5-1.5h-14c-.83 0-1.5.67-1.5 1.5s.67 1.5 1.5 1.5zM5.84 39.84c0 .55.45 1 1 1h2c.55 0 1-.45 1-1v-2c0-.55-.45-1-1-1h-2c-.55 0-1 .45-1 1zM41.72 34.95a1.49 1.49 0 0 0-2.12 0l-1.77 1.77-1.77-1.77a1.49 1.49 0 0 0-2.12 0 1.49 1.49 0 0 0 0 2.12l1.77 1.77-1.77 1.77a1.49 1.49 0 0 0 0 2.12c.29.29.68.44 1.06.44s.77-.15 1.06-.44l1.77-1.77 1.77 1.77c.29.29.68.44 1.06.44s.77-.15 1.06-.44c.59-.59.59-1.54 0-2.12l-1.77-1.77 1.77-1.77c.59-.59.59-1.54 0-2.12z" fill="#000000" opacity="1" data-original="#000000"></path></g></svg>