<svg width="126" height="126" viewBox="0 0 126 126" fill="none" xmlns="http://www.w3.org/2000/svg">
<circle cx="63" cy="63" r="63" fill="#FFA0A0"/>
<g clip-path="url(#clip0_25_6)">
<path d="M70.0704 28.483C69.6236 28.0122 69.0853 27.6377 68.4885 27.3827C67.8917 27.1276 67.249 26.9973 66.6 26.9998H59.4C58.0764 26.9998 56.844 27.5266 55.9296 28.483C55.4795 28.9506 55.1298 29.5053 54.902 30.1131C54.6742 30.7208 54.573 31.3687 54.6048 32.017L56.6784 77.6158C56.7325 78.8506 57.2616 80.0167 58.1552 80.8707C59.0487 81.7246 60.2376 82.2004 61.4736 82.1986H64.5276C65.7633 82.2001 66.9519 81.7244 67.8453 80.8708C68.7387 80.0171 69.268 78.8515 69.3228 77.617L71.3964 32.0158C71.4281 31.3677 71.3269 30.72 71.099 30.1125C70.8712 29.505 70.5216 28.9504 70.0716 28.483H70.0704ZM66.9252 77.5078C66.898 78.1252 66.6334 78.7082 66.1867 79.1353C65.74 79.5623 65.1456 79.8004 64.5276 79.7998H61.4736C60.8555 79.8007 60.261 79.5627 59.8142 79.1356C59.3674 78.7085 59.1029 78.1253 59.076 77.5078L57.0024 31.9078C56.9866 31.5837 57.0372 31.2599 57.1511 30.9561C57.265 30.6524 57.4398 30.3751 57.6648 30.1414C57.8883 29.9061 58.1575 29.719 58.4559 29.5915C58.7542 29.464 59.0755 29.3987 59.4 29.3998H66.6C67.2612 29.3998 67.8768 29.6638 68.334 30.1414C68.7924 30.619 69.0276 31.2478 68.9976 31.9078L66.9252 77.5078ZM63 84.5998C59.0292 84.5998 55.8 87.829 55.8 91.7998C55.8 95.7706 59.0292 98.9998 63 98.9998C66.9708 98.9998 70.2 95.7706 70.2 91.7998C70.2 87.829 66.9708 84.5998 63 84.5998ZM63 96.5998C60.3528 96.5998 58.2 94.447 58.2 91.7998C58.2 89.1526 60.3528 86.9998 63 86.9998C65.6472 86.9998 67.8 89.1526 67.8 91.7998C67.8 94.447 65.6472 96.5998 63 96.5998Z" fill="white"/>
</g>
<defs>
<clipPath id="clip0_25_6">
<rect width="72" height="72" fill="white" transform="translate(27 27)"/>
</clipPath>
</defs>
</svg>
