<svg width="116" height="126" viewBox="0 0 116 126" fill="none" xmlns="http://www.w3.org/2000/svg">
<path fill-rule="evenodd" clip-rule="evenodd" d="M110.67 5.33H5.33V20H0V5.33V0H5.33H110.67H116V5.33V78H110.67V5.33ZM90 120.67H5.33V44H0V120.67V126H5.33H90V120.67Z" fill="#F4512C"/>
<path fill-rule="evenodd" clip-rule="evenodd" d="M5.33 5.33H110.67V78H116V5.33V0H110.67H5.33H0V5.33V20H5.33V5.33Z" fill="#5E1B89"/>
<path d="M81.625 35H69.25V32.75C69.25 29.022 66.228 26 62.5 26H53.5C49.772 26 46.75 29.022 46.75 32.75V35H34.375C31.2685 35 28.75 37.5185 28.75 40.625V45.125C28.75 46.3677 29.7573 47.375 31 47.375H85C86.2427 47.375 87.25 46.3677 87.25 45.125V40.625C87.25 37.5185 84.7315 35 81.625 35ZM51.25 32.75C51.25 31.5097 52.2597 30.5 53.5 30.5H62.5C63.7403 30.5 64.75 31.5097 64.75 32.75V35H51.25V32.75ZM33.0199 51.875C32.9248 51.875 32.8306 51.8943 32.7432 51.9318C32.6557 51.9692 32.5767 52.0241 32.5111 52.0929C32.4454 52.1618 32.3944 52.2433 32.3612 52.3324C32.3279 52.4216 32.3131 52.5166 32.3177 52.6116L34.1739 91.5706C34.3455 95.1762 37.307 98 40.9155 98H75.0845C78.693 98 81.6545 95.1762 81.8261 91.5706L83.6823 52.6116C83.6869 52.5166 83.6721 52.4216 83.6388 52.3324C83.6056 52.2433 83.5546 52.1618 83.4889 52.0929C83.4233 52.0241 83.3443 51.9692 83.2568 51.9318C83.1694 51.8943 83.0752 51.875 82.9801 51.875H33.0199ZM67 57.5C67 56.2569 68.0069 55.25 69.25 55.25C70.4931 55.25 71.5 56.2569 71.5 57.5V86.75C71.5 87.9931 70.4931 89 69.25 89C68.0069 89 67 87.9931 67 86.75V57.5ZM55.75 57.5C55.75 56.2569 56.7569 55.25 58 55.25C59.2431 55.25 60.25 56.2569 60.25 57.5V86.75C60.25 87.9931 59.2431 89 58 89C56.7569 89 55.75 87.9931 55.75 86.75V57.5ZM44.5 57.5C44.5 56.2569 45.5069 55.25 46.75 55.25C47.9931 55.25 49 56.2569 49 57.5V86.75C49 87.9931 47.9931 89 46.75 89C45.5069 89 44.5 87.9931 44.5 86.75V57.5Z" fill="#5E1B89"/>
</svg>
