<svg width="116" height="126" viewBox="0 0 116 126" fill="none" xmlns="http://www.w3.org/2000/svg">
<path fill-rule="evenodd" clip-rule="evenodd" d="M110.67 5.33H5.33V26H0V5.33V0H5.33H110.67H116V5.33V78H110.67V5.33ZM92 120.67H5.33V50H0V120.67V126H5.33H92V120.67Z" fill="#F4512C"/>
<path fill-rule="evenodd" clip-rule="evenodd" d="M5.33 5.33H110.67V78H116V5.33V0H110.67H5.33H0V5.33V26H5.33V5.33Z" fill="#5E1B89"/>
<path d="M42.76 39.51H78.76C80.005 39.51 81.01 38.505 81.01 37.26C81.01 36.015 80.005 35.01 78.76 35.01H42.76C41.515 35.01 40.51 36.015 40.51 37.26C40.51 38.505 41.515 39.51 42.76 39.51ZM32.26 40.26H35.26C36.085 40.26 36.76 39.585 36.76 38.76V35.76C36.76 34.935 36.085 34.26 35.26 34.26H32.26C31.435 34.26 30.76 34.935 30.76 35.76V38.76C30.76 39.585 31.42 40.26 32.26 40.26ZM30.76 50.76C30.76 51.585 31.435 52.26 32.26 52.26H35.26C36.085 52.26 36.76 51.585 36.76 50.76V47.76C36.76 46.935 36.085 46.26 35.26 46.26H32.26C31.435 46.26 30.76 46.935 30.76 47.76V50.76ZM30.76 62.76C30.76 63.585 31.435 64.26 32.26 64.26H35.26C36.085 64.26 36.76 63.585 36.76 62.76V59.76C36.76 58.935 36.085 58.26 35.26 58.26H32.26C31.435 58.26 30.76 58.935 30.76 59.76V62.76ZM30.76 74.76C30.76 75.585 31.435 76.26 32.26 76.26H35.26C36.085 76.26 36.76 75.585 36.76 74.76V71.76C36.76 70.935 36.085 70.26 35.26 70.26H32.26C31.435 70.26 30.76 70.935 30.76 71.76V74.76ZM42.76 51.51H78.76C80.005 51.51 81.01 50.505 81.01 49.26C81.01 48.015 80.005 47.01 78.76 47.01H42.76C41.515 47.01 40.51 48.015 40.51 49.26C40.51 50.505 41.515 51.51 42.76 51.51ZM42.76 63.51H78.76C80.005 63.51 81.01 62.505 81.01 61.26C81.01 60.015 80.005 59.01 78.76 59.01H42.76C41.515 59.01 40.51 60.015 40.51 61.26C40.51 62.505 41.515 63.51 42.76 63.51ZM42.76 75.51H78.76C80.005 75.51 81.01 74.505 81.01 73.26C81.01 72.015 80.005 71.01 78.76 71.01H42.76C41.515 71.01 40.51 72.015 40.51 73.26C40.51 74.505 41.515 75.51 42.76 75.51ZM42.76 87.51H63.76C65.005 87.51 66.01 86.505 66.01 85.26C66.01 84.015 65.005 83.01 63.76 83.01H42.76C41.515 83.01 40.51 84.015 40.51 85.26C40.51 86.505 41.515 87.51 42.76 87.51ZM30.76 86.76C30.76 87.585 31.435 88.26 32.26 88.26H35.26C36.085 88.26 36.76 87.585 36.76 86.76V83.76C36.76 82.935 36.085 82.26 35.26 82.26H32.26C31.435 82.26 30.76 82.935 30.76 83.76V86.76ZM84.58 79.425C84.3721 79.2146 84.1245 79.0475 83.8516 78.9335C83.5787 78.8194 83.2858 78.7607 82.99 78.7607C82.6942 78.7607 82.4013 78.8194 82.1284 78.9335C81.8555 79.0475 81.6079 79.2146 81.4 79.425L78.745 82.08L76.09 79.425C75.8821 79.2146 75.6345 79.0475 75.3616 78.9335C75.0887 78.8194 74.7958 78.7607 74.5 78.7607C74.2042 78.7607 73.9113 78.8194 73.6384 78.9335C73.3655 79.0475 73.1179 79.2146 72.91 79.425C72.6996 79.6329 72.5325 79.8805 72.4185 80.1534C72.3044 80.4264 72.2457 80.7192 72.2457 81.015C72.2457 81.3108 72.3044 81.6037 72.4185 81.8766C72.5325 82.1495 72.6996 82.3971 72.91 82.605L75.565 85.26L72.91 87.915C72.6996 88.1229 72.5325 88.3705 72.4185 88.6434C72.3044 88.9164 72.2457 89.2092 72.2457 89.505C72.2457 89.8008 72.3044 90.0937 72.4185 90.3666C72.5325 90.6395 72.6996 90.8871 72.91 91.095C73.345 91.53 73.93 91.755 74.5 91.755C75.07 91.755 75.655 91.53 76.09 91.095L78.745 88.44L81.4 91.095C81.835 91.53 82.42 91.755 82.99 91.755C83.56 91.755 84.145 91.53 84.58 91.095C85.465 90.21 85.465 88.785 84.58 87.915L81.925 85.26L84.58 82.605C85.465 81.72 85.465 80.295 84.58 79.425Z" fill="#5E1B89"/>
</svg>
