<svg width="116" height="126" viewBox="0 0 116 126" fill="none" xmlns="http://www.w3.org/2000/svg">
<path fill-rule="evenodd" clip-rule="evenodd" d="M110.67 5.33H5.33V26H0V5.33V0H5.33H110.67H116V5.33V78H110.67V5.33ZM92 120.67H5.33V50H0V120.67V126H5.33H92V120.67Z" fill="#F4512C"/>
<path fill-rule="evenodd" clip-rule="evenodd" d="M5.33 5.33H110.67V78H116V5.33V0H110.67H5.33H0V5.33V26H5.33V5.33Z" fill="#5E1B89"/>
<path fill-rule="evenodd" clip-rule="evenodd" d="M45.9544 71.1472L44.2576 72.844L30.6832 59.2696L25.5928 64.36L44.2576 83.0248L51.0448 76.2376L49.348 74.5408L44.2576 79.6312L28.9864 64.36L30.6832 62.6632L44.2576 76.2376L47.6512 72.844L45.9544 71.1472ZM54.4384 62.6632L68.0128 49.0888L73.1032 54.1792L59.5288 67.7536L57.832 66.0568L69.7096 54.1792L68.0128 52.4824L56.1352 64.36L54.4384 62.6632ZM61.2256 72.844L84.9808 49.0888L90.0712 54.1792L61.2256 83.0248L42.5608 64.36L47.6512 59.2696L61.2256 72.844ZM86.6776 54.1792L61.2256 79.6312L45.9544 64.36L47.6512 62.6632L61.2256 76.2376L84.9808 52.4824L86.6776 54.1792Z" fill="#5E1B89"/>
</svg>
