<svg width="116" height="126" viewBox="0 0 116 126" fill="none" xmlns="http://www.w3.org/2000/svg">
<g clip-path="url(#clip0_9_111)">
<path d="M93.6002 36.599L86.7199 30.2747C83.576 27.3854 78.4613 27.3855 75.3178 30.2747L72.6247 32.75L90.9072 49.5547L93.6002 47.0794C96.7512 44.1832 96.7516 39.4954 93.6002 36.599ZM23.3008 79.4575L20.0737 95.4754C20.008 95.8015 20.0297 96.1373 20.1367 96.454C20.2437 96.7707 20.433 97.0588 20.6881 97.2933C20.9432 97.5278 21.2565 97.7017 21.6011 97.8001C21.9457 97.8986 22.3111 97.9185 22.6659 97.8581L40.0924 94.8919L23.3008 79.4575ZM69.4791 35.6415L25.7011 75.8809L43.9835 92.6855L87.7615 52.4462L69.4791 35.6415Z" fill="#5E1B89"/>
</g>
<path fill-rule="evenodd" clip-rule="evenodd" d="M110.67 5.33H5.33V14.5385H0V5.33V0H5.33H110.67H116V5.33V87.2308H110.67V5.33ZM78.0363 120.67H5.33V37.8H0V120.67V126H5.33H78.0363V120.67Z" fill="#5E1B89"/>
<path fill-rule="evenodd" clip-rule="evenodd" d="M78.0363 120.67H5.33V37.8H0V120.67V126H5.33H78.0363V120.67Z" fill="#F4512C"/>
<defs>
<clipPath id="clip0_9_111">
<rect width="75.9272" height="69.7846" fill="white" transform="translate(20.0363 28.1077)"/>
</clipPath>
</defs>
</svg>
